<svg width="86" height="32" viewBox="0 0 86 32" fill="none" xmlns="http://www.w3.org/2000/svg">
<g clip-path="url(#clip0)">
<path d="M3 -0.5H125C127.485 -0.5 129.5 1.51472 129.5 4V29C129.5 31.4853 127.485 33.5 125 33.5H3C0.514722 33.5 -1.5 31.4853 -1.5 29V4C-1.5 1.51472 0.514719 -0.5 3 -0.5Z" fill="url(#paint0_linear)" stroke="url(#paint1_linear)"/>
<path d="M37.4297 21L37.5439 20.2969L35.9355 19.998L36.4893 12.501L39.5039 20.7275L40.6289 20.5605L43.9775 12.1758L44.4697 19.9365L43.0107 20.3496L42.9141 21H47.625L47.7129 20.2969L46.1133 19.998L45.6562 11.0684L47.1328 10.7344L47.2207 10.0664H43.749L43.125 11.4814L40.4268 18.249L38.124 11.7715L37.4385 10.0664H33.8965L33.8086 10.7344L35.417 11.1035L34.7754 19.9365L33.3076 20.3496L33.2109 21H37.4297ZM49.0488 24.3398C49.5059 24.3398 49.8955 24.2549 50.2178 24.085C50.54 23.915 50.8418 23.625 51.123 23.2148C51.4043 22.8047 51.6973 22.2217 52.002 21.4658L54.9111 14.3379L55.7988 13.9775L55.8604 13.3271H52.8545L52.7314 13.9863L53.8828 14.3555L51.9844 19.0488L50.1914 14.3115L51.3076 13.9775L51.3867 13.3271H47.6953L47.5986 14.0039L48.6885 14.3379L51.1934 21L51.0176 21.4307C50.8066 21.9521 50.5752 22.2949 50.3232 22.459C50.0771 22.623 49.8076 22.7051 49.5146 22.7051C49.2861 22.7051 49.0664 22.667 48.8555 22.5908C48.6504 22.5205 48.4277 22.4033 48.1875 22.2393C48 22.4033 47.8711 22.5703 47.8008 22.7402C47.7305 22.9102 47.6953 23.0947 47.6953 23.2939C47.6953 23.4639 47.751 23.6279 47.8623 23.7861C47.9795 23.9502 48.1406 24.082 48.3457 24.1816C48.5566 24.2871 48.791 24.3398 49.0488 24.3398ZM64.2275 21.2109C64.8018 21.2109 65.3525 21.1201 65.8799 20.9385C66.4131 20.7568 66.8848 20.5283 67.2949 20.2529C67.7051 19.9717 68.0361 19.6787 68.2881 19.374L67.9805 18.7061C67.5645 19.0869 67.084 19.4033 66.5391 19.6553C66 19.9014 65.4551 20.0244 64.9043 20.0244C64.1895 20.0244 63.5303 19.8398 62.9268 19.4707C62.3232 19.0957 61.8369 18.5479 61.4678 17.8271C61.1045 17.1006 60.9229 16.2305 60.9229 15.2168C60.9229 14.2969 61.0664 13.4941 61.3535 12.8086C61.6406 12.123 62.0303 11.5986 62.5225 11.2354C63.0205 10.8662 63.5771 10.6816 64.1924 10.6816C64.7314 10.6816 65.1885 10.7637 65.5635 10.9277C65.9443 11.0918 66.2432 11.3145 66.46 11.5957L66.8291 13.5293L67.6025 13.6436L67.875 10.7256C67.4766 10.4209 67.002 10.1982 66.4512 10.0576C65.9004 9.91699 65.3145 9.84668 64.6934 9.84668C63.4336 9.84668 62.3789 10.1514 61.5293 10.7607C60.6797 11.3643 60.0527 12.126 59.6484 13.0459C59.2441 13.96 59.042 14.8857 59.042 15.8232C59.042 16.9482 59.2793 17.918 59.7539 18.7324C60.2344 19.5469 60.8701 20.165 61.6611 20.5869C62.4521 21.0029 63.3076 21.2109 64.2275 21.2109ZM69.3867 11.1035L73.0605 21.2109L74.3965 20.9648L78.1318 11.0684L79.292 10.7344L79.3535 10.0664H75.3545L75.293 10.7344L76.8926 11.1035L74.0801 18.7939L71.3291 11.0684L72.8232 10.7344L72.9111 10.0664H68.1826L68.0947 10.7344L69.3867 11.1035Z" fill="white"/>
<path d="M27.8791 15.4297C25.9962 11.2965 22.2684 8.5 18 8.5C13.7316 8.5 10.0028 11.2984 8.12081 15.4301C8.04138 15.6068 8 15.8021 8 16.0002C8 16.1983 8.04138 16.3936 8.12081 16.5703C10.0038 20.7035 13.7316 23.5 18 23.5C22.2684 23.5 25.9972 20.7016 27.8791 16.5699C27.9586 16.3932 28 16.1979 28 15.9998C28 15.8017 27.9586 15.6064 27.8791 15.4297V15.4297ZM18 21.625C17.0111 21.625 16.0444 21.2951 15.2221 20.677C14.3999 20.0589 13.759 19.1804 13.3806 18.1526C13.0021 17.1248 12.9031 15.9938 13.0961 14.9026C13.289 13.8115 13.7652 12.8092 14.4644 12.0225C15.1637 11.2359 16.0546 10.7001 17.0245 10.4831C17.9944 10.266 18.9998 10.3774 19.9134 10.8032C20.827 11.2289 21.6079 11.9499 22.1573 12.8749C22.7067 13.7999 23 14.8875 23 16C23.0003 16.7388 22.8712 17.4704 22.62 18.153C22.3689 18.8356 22.0006 19.4559 21.5362 19.9783C21.0719 20.5007 20.5205 20.915 19.9138 21.1976C19.307 21.4801 18.6567 21.6254 18 21.625V21.625ZM18 12.25C17.7025 12.2547 17.4069 12.3045 17.1212 12.398C17.3567 12.7581 17.4697 13.2011 17.4397 13.6469C17.4097 14.0926 17.2388 14.5115 16.9578 14.8275C16.6768 15.1436 16.3045 15.336 15.9083 15.3697C15.5121 15.4034 15.1183 15.2763 14.7982 15.0113C14.616 15.7666 14.6489 16.5672 14.8923 17.3004C15.1357 18.0336 15.5773 18.6624 16.1551 19.0984C16.7328 19.5344 17.4175 19.7556 18.1128 19.7309C18.8081 19.7062 19.4791 19.4368 20.0312 18.9607C20.5833 18.4845 20.9888 17.8256 21.1905 17.0766C21.3923 16.3276 21.3802 15.5262 21.156 14.7854C20.9317 14.0445 20.5066 13.4014 19.9405 12.9466C19.3743 12.4918 18.6957 12.2482 18 12.25V12.25Z" fill="white"/>
</g>
<defs>
<linearGradient id="paint0_linear" x1="122" y1="30.5" x2="2.50001" y2="-1.00001" gradientUnits="userSpaceOnUse">
<stop offset="0.00483697" stop-color="#7700ff"/>
<stop offset="1" stop-color="#FF5500"/>
</linearGradient>
<linearGradient id="paint1_linear" x1="64" y1="-1" x2="64" y2="34" gradientUnits="userSpaceOnUse">
<stop stop-color="#FF5500"/>
<stop offset="1" stop-color="#7700ff"/>
</linearGradient>
<clipPath id="clip0">
<rect width="86" height="32" rx="5" fill="white"/>
</clipPath>
</defs>
</svg>
