<svg xmlns="http://www.w3.org/2000/svg" width="32" height="32" fill="none" viewBox="0 0 32 32"><g clip-path="url(#clip0_556_38)"><path fill="url(#paint0_linear_556_38)" d="M14.6063 0.568058L0.566344 14.5968C0.386911 14.7756 0.244539 14.9881 0.147395 15.222C0.0502504 15.4559 0.000244141 15.7068 0.000244141 15.9601C0.000244141 16.2134 0.0502504 16.4642 0.147395 16.6981C0.244539 16.9321 0.386911 17.1445 0.566344 17.3233L14.6063 31.3519C15.3612 32.1061 16.5803 32.1061 17.3351 31.3519L23.222 25.4699C23.898 24.7944 23.898 23.6993 23.222 23.0239C22.546 22.3484 21.45 22.3484 20.774 23.0239L16.3112 27.4829C16.1233 27.6707 15.8382 27.6707 15.6503 27.4829L4.43834 16.2802C4.25047 16.0924 4.25047 15.8076 4.43834 15.6198L15.6503 4.41693C15.8382 4.22931 16.1233 4.22931 16.3112 4.41693L20.774 8.87606C21.45 9.55156 22.546 9.55156 23.222 8.87606C23.898 8.20056 23.898 7.10556 23.222 6.43006L17.3357 0.548808C16.5778 -0.189192 15.3582 -0.183192 14.6063 0.568058Z"/><path fill="url(#paint1_linear_556_38)" d="M14.6063 0.567952L0.566344 14.5967C0.386911 14.7755 0.244539 14.988 0.147395 15.2219C0.0502504 15.4558 0.000244141 15.7066 0.000244141 15.96C0.000244141 16.2133 0.0502504 16.4641 0.147395 16.698C0.244539 16.9319 0.386911 17.1444 0.566344 17.3232L14.6063 31.3518C15.3612 32.106 16.5803 32.106 17.3351 31.3518L23.222 25.4698C23.898 24.7943 23.898 23.6992 23.222 23.0238C22.546 22.3483 21.45 22.3483 20.774 23.0238L16.3112 27.4828C16.1233 27.6706 15.8382 27.6706 15.6503 27.4828L4.43834 16.2801C4.25047 16.0923 4.25047 15.8075 4.43834 15.6197L15.6503 4.41683C16.1181 4.01358 16.8815 3.19683 18.0022 3.00558C18.8352 2.8637 19.746 3.1762 20.7343 3.94308L17.3358 0.548577C16.5778 -0.189298 15.3583 -0.183298 14.6063 0.567952Z"/><path fill="url(#paint2_linear_556_38)" d="M24.5811 21.7193C25.2571 22.3948 26.3531 22.3948 27.0291 21.7193L31.3714 17.3805C31.5509 17.2017 31.6932 16.9893 31.7904 16.7553C31.8875 16.5214 31.9375 16.2706 31.9375 16.0173C31.9375 15.764 31.8875 15.5131 31.7904 15.2792C31.6932 15.0453 31.5509 14.8328 31.3714 14.654L26.9913 10.2928C26.3137 9.61813 25.2173 9.61913 24.5409 10.295C23.8649 10.9705 23.8649 12.0655 24.5409 12.741L27.4993 15.697C27.6872 15.8848 27.6872 16.1696 27.4993 16.3574L24.5811 19.2733C23.9051 19.9488 23.9051 21.0439 24.5811 21.7193Z"/><path fill="url(#paint3_linear_556_38)" d="M16.0409 19.818C18.1345 19.818 19.8318 18.1222 19.8318 16.0303C19.8318 13.9383 18.1345 12.2425 16.0409 12.2425C13.9472 12.2425 12.25 13.9383 12.25 16.0303C12.25 18.1222 13.9472 19.818 16.0409 19.818Z"/></g><defs><linearGradient id="paint0_linear_556_38" x1="14.736" x2="28.078" y1="0" y2="8.148" gradientUnits="userSpaceOnUse"><stop stop-color="#4285EB"/><stop offset="1" stop-color="#2EC7FF"/></linearGradient><linearGradient id="paint1_linear_556_38" x1="16.526" x2="9.936" y1="0" y2="34.058" gradientUnits="userSpaceOnUse"><stop stop-color="#29CDFF"/><stop offset=".379" stop-color="#148EFF"/><stop offset="1" stop-color="#0A60FF"/></linearGradient><linearGradient id="paint2_linear_556_38" x1="29.542" x2="20.968" y1="8.174" y2="21.583" gradientUnits="userSpaceOnUse"><stop stop-color="#FA816E"/><stop offset=".415" stop-color="#F74A5C"/><stop offset="1" stop-color="#F51D2C"/></linearGradient><linearGradient id="paint3_linear_556_38" x1="17.415" x2="14.562" y1="9.539" y2="20.951" gradientUnits="userSpaceOnUse"><stop stop-color="#FA8E7D"/><stop offset=".513" stop-color="#F74A5C"/><stop offset="1" stop-color="#F51D2C"/></linearGradient><clipPath id="clip0_556_38"><rect width="32" height="32" fill="#fff"/></clipPath></defs></svg>