<svg xmlns="http://www.w3.org/2000/svg" width="32" height="26" fill="none" viewBox="0 0 32 26"><g clip-path="url(#clip0_556_36)"><path fill="#7E13F8" d="M6.6465 0C4.82063 0 3.4695 1.62946 3.53 3.39657C3.58812 5.09422 3.51262 7.29313 2.96975 9.08624C2.42525 10.8846 1.50425 12.0237 0 12.17V13.8213C1.50425 13.9676 2.42525 15.1068 2.96975 16.9052C3.51262 18.6983 3.58812 20.897 3.53 22.5948C3.4695 24.3616 4.82062 25.9913 6.64675 25.9913H25.3559C27.1819 25.9913 28.5326 24.3619 28.4721 22.5948C28.4141 20.8971 28.4895 18.6983 29.0324 16.9052C29.5773 15.1069 30.4957 13.9675 32 13.8213V12.17C30.4957 12.0237 29.5772 10.8846 29.0325 9.08624C28.4895 7.29338 28.4141 5.09434 28.4721 3.39657C28.5326 1.62972 27.1819 0 25.3559 0H6.64625H6.6465ZM21.695 15.9993C21.695 18.4326 19.915 19.9082 16.961 19.9082H11.9323C11.7884 19.9082 11.6505 19.8499 11.5488 19.7462C11.4471 19.6425 11.39 19.5019 11.39 19.3552V6.63612C11.39 6.56349 11.404 6.49156 11.4312 6.42445C11.4585 6.35734 11.4984 6.29636 11.5488 6.245C11.5992 6.19363 11.659 6.15289 11.7248 6.12509C11.7906 6.09729 11.8611 6.08298 11.9324 6.08298H16.9322C19.3954 6.08298 21.0119 7.44352 21.0119 9.53219C21.0119 10.9983 19.9244 12.3107 18.539 12.5405V12.6171C20.4251 12.8281 21.695 14.1598 21.695 15.9993ZM16.4125 7.83607H13.5454V11.9655H15.9604C17.8271 11.9655 18.8566 11.199 18.8566 9.82889C18.8566 8.54508 17.9713 7.83607 16.4125 7.83607ZM13.5454 13.604V18.1546H16.5181C18.4616 18.1546 19.4914 17.3595 19.4914 15.865C19.4914 14.3702 18.433 13.6037 16.3931 13.6037H13.5454V13.604Z"/></g><defs><clipPath id="clip0_556_36"><rect width="32" height="26" fill="#fff"/></clipPath></defs></svg>