<svg width="32" height="32" viewBox="0 0 32 32" fill="none" xmlns="http://www.w3.org/2000/svg">
<path d="M5.80005 24.6L5.97005 24.363L13.99 9.149L14.007 8.988L10.472 2.348C10.4073 2.22658 10.3061 2.12858 10.1826 2.06787C10.0591 2.00715 9.91969 1.9868 9.78401 2.00969C9.64834 2.03258 9.52329 2.09755 9.42657 2.19541C9.32985 2.29327 9.26635 2.41907 9.24505 2.555L5.80005 24.6Z" fill="#FFC24A"/>
<path d="M5.8999 24.42L6.0279 24.17L13.9649 9.114L10.4389 2.448C10.3808 2.33207 10.2866 2.23811 10.1706 2.18018C10.0545 2.12225 9.92285 2.10348 9.79525 2.12668C9.66765 2.14988 9.551 2.2138 9.46278 2.30887C9.37456 2.40393 9.31952 2.52502 9.3059 2.654L5.8999 24.42Z" fill="#FFA712"/>
<path d="M16.584 14.01L19.216 11.31L16.583 6.289C16.525 6.18094 16.4388 6.09062 16.3336 6.02765C16.2284 5.96469 16.1081 5.93143 15.9855 5.93143C15.8628 5.93143 15.7425 5.96469 15.6373 6.02765C15.5321 6.09062 15.4459 6.18094 15.388 6.289L13.981 8.971V9.2L16.584 14.01Z" fill="#F4BD62"/>
<path d="M16.5371 13.9L19.0961 11.28L16.5371 6.4C16.4952 6.29437 16.4237 6.20311 16.3311 6.13722C16.2385 6.07133 16.1288 6.03363 16.0153 6.02866C15.9018 6.02369 15.7892 6.05167 15.6913 6.10922C15.5933 6.16677 15.514 6.25143 15.4631 6.353L14.0491 9.082L14.0071 9.221L16.5371 13.9Z" fill="#FFA50E"/>
<path d="M5.802 24.601L5.879 24.523L6.158 24.41L16.418 14.188L16.548 13.834L13.989 8.956L5.802 24.601Z" fill="#F6820C"/>
<path d="M16.912 29.756L26.2001 24.577L23.546 8.246C23.527 8.13087 23.4766 8.02322 23.4004 7.93485C23.3242 7.84648 23.2252 7.78082 23.1141 7.74507C23.003 7.70931 22.8842 7.70486 22.7708 7.73219C22.6574 7.75952 22.5537 7.81758 22.4711 7.9L5.80005 24.6L15.033 29.755C15.3201 29.9152 15.6433 29.9993 15.972 29.9993C16.3008 29.9993 16.624 29.9152 16.911 29.755" fill="#FDE068"/>
<path d="M26.1149 24.534L23.4829 8.326C23.4783 8.21589 23.441 8.10963 23.376 8.02067C23.3109 7.93171 23.2209 7.86405 23.1174 7.82626C23.0139 7.78847 22.9015 7.78224 22.7944 7.80836C22.6873 7.83448 22.5904 7.89178 22.5159 7.973L5.8999 24.569L15.0309 29.669C15.3157 29.8279 15.6363 29.9113 15.9624 29.9113C16.2885 29.9113 16.6091 29.8279 16.8939 29.669L26.1149 24.534Z" fill="#FCCA3F"/>
<path d="M16.912 29.6C16.625 29.7602 16.3018 29.8443 15.973 29.8443C15.6443 29.8443 15.3211 29.7602 15.034 29.6L5.87605 24.522L5.80005 24.6L15.033 29.755C15.3201 29.9152 15.6433 29.9993 15.972 29.9993C16.3008 29.9993 16.624 29.9152 16.911 29.755L26.2001 24.577L26.177 24.437L16.912 29.6Z" fill="#EEAB37"/>
</svg>
