<svg width="32" height="34" viewBox="0 0 32 34" fill="none" xmlns="http://www.w3.org/2000/svg">
<g clip-path="url(#clip0_556_44)">
<path d="M32 16.9553C32 7.59122 24.8366 0 16.0002 0C7.16337 0 0 7.59122 0 16.9553C0 26.3193 7.16337 33.9108 16 33.9108C24.8366 33.9108 32 26.3193 32 16.9553Z" fill="#339AF0"/>
<path d="M13.822 8.44874C13.9801 8.42401 14.1413 8.43246 14.2963 8.47362C14.4514 8.51478 14.5972 8.58784 14.7253 8.68859C15.2554 9.10531 15.7445 9.57704 16.1853 10.0967L16.2946 10.2275H19.7458C20.4188 10.2275 20.9638 10.804 20.9638 11.516C20.9638 12.2122 20.4418 12.7789 19.7903 12.8036L19.7457 12.8046H17.8395C18.3721 14.0972 18.6455 15.492 18.6427 16.9013C18.6453 18.2597 18.3912 19.605 17.8953 20.8587L17.8393 20.9976H19.7446C20.4178 20.9976 20.963 21.5743 20.963 22.2862C20.963 22.9823 20.4407 23.5492 19.7892 23.574L19.7446 23.5749H16.2925C15.824 24.1457 15.2982 24.6612 14.7242 25.1123C14.5959 25.2132 14.4499 25.2863 14.2946 25.3275C14.1394 25.3687 13.978 25.3771 13.8196 25.3523C13.6613 25.3275 13.5092 25.2699 13.372 25.1829C13.2349 25.0958 13.1154 24.9811 13.0205 24.8452C12.9252 24.709 12.8563 24.5545 12.8176 24.3904C12.7389 24.0586 12.7882 23.7075 12.9546 23.414C13.0366 23.2692 13.1449 23.1429 13.2735 23.0424C15.1372 21.5787 16.2071 19.3406 16.2071 16.901C16.2071 14.4616 15.1371 12.2235 13.2735 10.7597C13.1448 10.6593 13.0363 10.533 12.9542 10.3881C12.8351 10.1771 12.7752 9.93477 12.7816 9.68933C12.7879 9.4439 12.8602 9.2054 12.9901 9.00157L13.0205 8.95597C13.2136 8.68202 13.5018 8.49969 13.822 8.44874ZM13.6026 14.6966C13.8249 14.7965 14.0258 14.9425 14.1936 15.1259C14.362 15.31 14.4939 15.5276 14.5817 15.766C14.6697 16.0051 14.712 16.2602 14.7061 16.5166C14.6951 17.0176 14.5002 17.4946 14.1623 17.8471C13.8268 18.1972 13.3739 18.3938 12.9018 18.3943C12.4296 18.3939 11.9765 18.1973 11.6408 17.8471C11.303 17.4946 11.1081 17.0176 11.0972 16.5166C11.0914 16.2602 11.1338 16.0051 11.222 15.766C11.3098 15.5276 11.4417 15.31 11.6101 15.1259C11.7778 14.9426 11.9786 14.7966 12.2008 14.6967C12.4224 14.5972 12.6608 14.5458 12.9017 14.5458C13.1426 14.5458 13.381 14.597 13.6026 14.6966Z" fill="white"/>
</g>
<defs>
<clipPath id="clip0_556_44">
<rect width="32" height="34" fill="white"/>
</clipPath>
</defs>
</svg>
