<svg viewBox="0 0 100 100" xmlns="http://www.w3.org/2000/svg"><rect x="3" y="3" width="94" height="94" rx="4" style="fill:#2d1b4e"/><rect width="94" height="94" rx="4" style="fill:#8b5cf6"/><path d="M15 75h10l2-10h10l2 10h10L37 25h-8Zm16-25h4l-2-10Zm21 25h23q10 0 10-10V35q0-10-10-10H52Zm10-10h8q5 0 5-5V40q0-5-5-5h-8Z" style="fill:#fff"/><path style="fill:#c2410c" d="M72 12h8v8h-8z"/><path style="fill:#f97316" d="M70 10h8v8h-8z"/><path style="fill:#047857" d="M18 82h8v8h-8z"/><path style="fill:#10b981" d="M15 79h8v8h-8z"/><path style="fill:#b91c1c" d="M12 32h6v6h-6z"/><path style="fill:#ef4444" d="M10 30h6v6h-6z"/></svg>